<svg width="70" height="70" viewBox="0 0 70 70" fill="none" xmlns="http://www.w3.org/2000/svg">
<g filter="url(#filter0_d_113_55119)">
<circle cx="35" cy="28" r="20" fill="#00DBDC"/>
</g>
<path fill-rule="evenodd" clip-rule="evenodd" d="M29.3463 20.5003C29.372 20.5004 29.3971 20.5005 29.4214 20.5005H31.5343C31.5552 20.5005 31.5766 20.5004 31.5985 20.5004C31.8304 20.4994 32.1214 20.4982 32.3872 20.6002C32.6165 20.6883 32.8206 20.8313 32.9818 21.0167C33.1685 21.2316 33.2668 21.5055 33.3451 21.7237C33.3525 21.7444 33.3598 21.7645 33.3669 21.7841L34.2414 24.1891C34.2438 24.1957 34.2462 24.2022 34.2486 24.2088C34.3026 24.3573 34.3562 24.5046 34.3927 24.6344C34.4334 24.779 34.4682 24.9513 34.4554 25.1478C34.4374 25.4248 34.3428 25.6914 34.1823 25.9179C34.0684 26.0785 33.9329 26.1904 33.8101 26.2771C33.7 26.3549 33.5656 26.4355 33.43 26.5168L32.9825 26.7854C33.7349 28.1395 34.8608 29.2662 36.2145 30.0178L36.4832 29.5699C36.5645 29.4344 36.6451 29.3 36.7229 29.1899C36.8096 29.0671 36.9215 28.9316 37.0821 28.8177C37.3086 28.6572 37.5752 28.5626 37.8522 28.5446C38.0487 28.5318 38.221 28.5666 38.3656 28.6073C38.4954 28.6438 38.6427 28.6974 38.7912 28.7514L41.2159 29.6331C41.2355 29.6402 41.2556 29.6475 41.2763 29.6549C41.4945 29.7332 41.7684 29.8315 41.9833 30.0182C42.1687 30.1794 42.3117 30.3835 42.3998 30.6128C42.5018 30.8786 42.5006 31.1696 42.4996 31.4015C42.4996 31.4234 42.4995 31.4448 42.4995 31.4657V33.5786C42.4995 33.6029 42.4996 33.628 42.4997 33.6537C42.5011 33.9306 42.5029 34.2829 42.3506 34.5988C42.2234 34.8626 42.0017 35.1011 41.7479 35.2472C41.4448 35.4218 41.1128 35.4444 40.8562 35.462C40.8337 35.4635 40.8118 35.465 40.7905 35.4666C40.488 35.4887 40.1825 35.5 39.8746 35.5C33.0403 35.5 27.5 29.9597 27.5 23.1254C27.5 22.8175 27.5113 22.512 27.5334 22.2095C27.535 22.1882 27.5365 22.1663 27.538 22.1438C27.5555 21.8872 27.5782 21.5552 27.7528 21.2521C27.8989 20.9983 28.1374 20.7766 28.4012 20.6494C28.7171 20.4971 29.0694 20.4989 29.3463 20.5003ZM29.0578 22.0073C29.0541 22.0314 29.0499 22.0653 29.0453 22.1162C29.0402 22.1715 29.0355 22.2355 29.0294 22.319C29.0099 22.5852 28.9999 22.8541 28.9999 23.1254C28.9999 29.1313 33.8687 34.0001 39.8746 34.0001C40.1459 34.0001 40.4148 33.9901 40.681 33.9706C40.7645 33.9645 40.8285 33.9598 40.8838 33.9547C40.9347 33.9501 40.9686 33.9459 40.9927 33.9421C40.9928 33.9412 40.9928 33.9403 40.9929 33.9393C40.9989 33.8691 40.9995 33.7711 40.9995 33.5786V31.4657C40.9995 31.3043 40.9991 31.2202 40.995 31.1595C40.9949 31.1575 40.9947 31.1557 40.9946 31.1539C40.993 31.1532 40.9913 31.1524 40.9895 31.1516C40.9338 31.127 40.855 31.0979 40.7033 31.0428L38.2983 30.1682C38.1223 30.1042 38.0286 30.0706 37.9593 30.0511C37.9568 30.0505 37.9545 30.0498 37.9523 30.0492C37.951 30.0511 37.9496 30.053 37.9481 30.0551C37.9066 30.1139 37.855 30.199 37.7586 30.3596L37.1428 31.386C36.9468 31.7126 36.5372 31.8405 36.1903 31.6833C34.0368 30.708 32.2932 28.9619 31.3169 26.8102C31.1594 26.4632 31.2872 26.0533 31.614 25.8572L32.6404 25.2414C32.801 25.145 32.8861 25.0934 32.9449 25.0519C32.947 25.0504 32.9489 25.049 32.9508 25.0477C32.9502 25.0455 32.9495 25.0432 32.9489 25.0407C32.9294 24.9714 32.8958 24.8777 32.8318 24.7017L31.9572 22.2967C31.9021 22.145 31.873 22.0662 31.8484 22.0105C31.8476 22.0087 31.8468 22.007 31.8461 22.0054C31.8443 22.0053 31.8425 22.0051 31.8405 22.005C31.7798 22.0009 31.6957 22.0005 31.5343 22.0005H29.4214C29.2289 22.0005 29.1309 22.0011 29.0606 22.0071C29.0597 22.0072 29.0588 22.0072 29.0578 22.0073Z" fill="#131313"/>
<defs>
<filter id="filter0_d_113_55119" x="0.599999" y="0.8" width="68.8" height="68.8" filterUnits="userSpaceOnUse" color-interpolation-filters="sRGB">
<feFlood flood-opacity="0" result="BackgroundImageFix"/>
<feColorMatrix in="SourceAlpha" type="matrix" values="0 0 0 0 0 0 0 0 0 0 0 0 0 0 0 0 0 0 127 0" result="hardAlpha"/>
<feOffset dy="7.2"/>
<feGaussianBlur stdDeviation="7.2"/>
<feComposite in2="hardAlpha" operator="out"/>
<feColorMatrix type="matrix" values="0 0 0 0 0 0 0 0 0 0.858824 0 0 0 0 0.862745 0 0 0 0.2 0"/>
<feBlend mode="normal" in2="BackgroundImageFix" result="effect1_dropShadow_113_55119"/>
<feBlend mode="normal" in="SourceGraphic" in2="effect1_dropShadow_113_55119" result="shape"/>
</filter>
</defs>
</svg>
