<svg width="70" height="70" viewBox="0 0 70 70" fill="none" xmlns="http://www.w3.org/2000/svg">
<g filter="url(#filter0_d_113_55126)">
<circle cx="35" cy="28" r="20" fill="#00DBDC"/>
</g>
<path fill-rule="evenodd" clip-rule="evenodd" d="M26.6665 24.0972C26.6665 22.5706 27.8632 21.333 29.3395 21.333H40.6602C42.1364 21.333 43.3332 22.5706 43.3332 24.0972V31.9021C43.3332 33.4288 42.1364 34.6663 40.6602 34.6663H29.3395C27.8632 34.6663 26.6665 33.4288 26.6665 31.9021V24.0972ZM29.3405 22.959L34.9103 26.9468C34.9642 26.9853 35.0355 26.9853 35.0893 26.9468L40.6592 22.959H29.3405ZM41.7608 24.0976C41.7114 24.1657 41.6508 24.2268 41.5794 24.2779L35.9843 28.2837C35.392 28.7077 34.6076 28.7077 34.0154 28.2837L28.4203 24.2779C28.3489 24.2268 28.2882 24.1657 28.2388 24.0976V31.9021C28.2388 32.5307 28.7316 33.0403 29.3395 33.0403H40.6602C41.2681 33.0403 41.7608 32.5307 41.7608 31.9021V24.0976Z" fill="#131313"/>
<defs>
<filter id="filter0_d_113_55126" x="0.599999" y="0.8" width="68.8" height="68.8" filterUnits="userSpaceOnUse" color-interpolation-filters="sRGB">
<feFlood flood-opacity="0" result="BackgroundImageFix"/>
<feColorMatrix in="SourceAlpha" type="matrix" values="0 0 0 0 0 0 0 0 0 0 0 0 0 0 0 0 0 0 127 0" result="hardAlpha"/>
<feOffset dy="7.2"/>
<feGaussianBlur stdDeviation="7.2"/>
<feComposite in2="hardAlpha" operator="out"/>
<feColorMatrix type="matrix" values="0 0 0 0 0 0 0 0 0 0.858824 0 0 0 0 0.862745 0 0 0 0.2 0"/>
<feBlend mode="normal" in2="BackgroundImageFix" result="effect1_dropShadow_113_55126"/>
<feBlend mode="normal" in="SourceGraphic" in2="effect1_dropShadow_113_55126" result="shape"/>
</filter>
</defs>
</svg>
